<?xml version="1.0" encoding="UTF-8"?>
<!DOCTYPE svg PUBLIC "-//W3C//DTD SVG 1.1//EN" "http://www.w3.org/Graphics/SVG/1.1/DTD/svg11.dtd">
<!-- Creator: CorelDRAW X5 -->
<svg xmlns="http://www.w3.org/2000/svg" xml:space="preserve" width="6.68in" height="2.95in" style="shape-rendering:geometricPrecision; text-rendering:geometricPrecision; image-rendering:optimizeQuality; fill-rule:evenodd; clip-rule:evenodd"
viewBox="0 0 6.68 2.95"
 xmlns:xlink="http://www.w3.org/1999/xlink">
 <defs>
  <style type="text/css">
   <![CDATA[
    .str1 {stroke:#2F318B;stroke-width:0.003}
    .str0 {stroke:#FEFEFE;stroke-width:0.00694488}
    .fil0 {fill:none}
    .fil14 {fill:none;fill-rule:nonzero}
    .fil9 {fill:#009B4C}
    .fil12 {fill:#00A2E9}
    .fil4 {fill:#2F318B}
    .fil6 {fill:#A0D9F6}
    .fil7 {fill:#ACCE22}
    .fil3 {fill:#D0753B}
    .fil10 {fill:#DAB96B}
    .fil1 {fill:#EF8641}
    .fil2 {fill:#F6AE45}
    .fil11 {fill:#FDD100}
    .fil8 {fill:#FFF582}
    .fil5 {fill:#FFF9B1}
    .fil15 {fill:#EF8641;fill-rule:nonzero}
    .fil13 {fill:#4D509E;fill-rule:nonzero}
   ]]>
  </style>
 </defs>
 <g id="Layer_x0020_1">
  <metadata id="CorelCorpID_0Corel-Layer"/>
  <g id="_353474400">
   <polygon id="_351211584" class="fil0 str0" points="5.59819,1.87452 5.84377,1.72648 6.08935,1.57844 6.08935,1.28237 6.08935,0.986299 5.84377,0.838268 5.59819,0.690228 5.35261,0.838268 5.10703,0.986299 5.10703,1.28237 5.10703,1.57844 5.35261,1.72648 "/>
   <polygon id="_351211632" class="fil1" points="6.08321,1.27411 6.08443,1.57018 5.83946,1.71931 5.59528,1.86797 5.59406,1.57285 5.59285,1.27678 5.83781,1.12765 6.082,0.978988 "/>
   <polygon id="_351210480" class="fil2" points="5.10826,1.27806 5.10703,1.57412 5.35497,1.72326 5.60212,1.87192 5.60335,1.5768 5.60459,1.28073 5.35665,1.13159 5.1095,0.982933 "/>
   <polygon id="_351210984" class="fil3" points="5.35194,1.13427 5.10635,0.986555 5.3479,0.840949 5.59348,0.692913 5.83906,0.840949 6.08385,0.988512 5.83906,1.13607 5.59726,1.28183 "/>
   <polygon id="_351210336" class="fil0 str0" points="5.07012,2.22121 5.3157,2.07318 5.56128,1.92514 5.56128,1.62907 5.56128,1.333 5.3157,1.18496 5.07012,1.03693 4.82454,1.18496 4.57896,1.333 4.57896,1.62907 4.57896,1.92514 4.82454,2.07318 "/>
   <polygon id="_351210912" class="fil4" points="5.55515,1.62081 5.55636,1.91688 5.3114,2.06602 5.06721,2.21467 5.066,1.91955 5.06478,1.62348 5.30974,1.47435 5.55393,1.32569 "/>
   <polygon id="_351210720" class="fil5" points="4.5802,1.62475 4.57896,1.92082 4.82691,2.06996 5.07406,2.21862 5.07529,1.9235 5.07652,1.62743 4.82858,1.47829 4.58143,1.32963 "/>
   <polygon id="_351210792" class="fil6" points="4.82387,1.48097 4.57829,1.33326 4.81983,1.18765 5.06541,1.03961 5.31099,1.18765 5.55579,1.33521 5.31099,1.48277 5.06919,1.62853 "/>
   <polygon id="_351210264" class="fil0" points="6.10204,2.52428 6.34761,2.37624 6.59319,2.22821 6.59319,1.93214 6.59319,1.63607 6.34761,1.48803 6.10204,1.33999 5.85646,1.48803 5.61088,1.63607 5.61088,1.93214 5.61088,2.22821 5.85646,2.37624 "/>
   <polygon id="_351210864" class="fil7" points="6.62143,1.62561 6.62265,1.92168 6.37769,2.07081 6.1335,2.21947 6.13228,1.92435 6.13107,1.62828 6.37604,1.47914 6.62022,1.33048 "/>
   <polygon id="_351217944" class="fil1" points="5.64627,1.62234 5.64504,1.91841 5.89298,2.06754 6.14013,2.2162 6.14136,1.92108 6.14259,1.62501 5.89465,1.47587 5.6475,1.32722 "/>
   <polygon id="_351217968" class="fil8" points="5.89016,1.48577 5.64457,1.33805 5.88613,1.19244 6.1317,1.04441 6.37728,1.19244 6.62207,1.34001 6.37728,1.48757 6.13548,1.63333 "/>
   <polygon id="_351218280" class="fil0 str0" points="5.60981,2.54205 5.85539,2.39401 6.10096,2.24597 6.10096,1.9499 6.10096,1.65383 5.85539,1.5058 5.60981,1.35776 5.36423,1.5058 5.11865,1.65383 5.11865,1.9499 5.11865,2.24597 5.36423,2.39401 "/>
   <polygon id="_351218064" class="fil9" points="6.09483,1.94164 6.09605,2.23771 5.85108,2.38685 5.6069,2.5355 5.60569,2.24038 5.60446,1.94431 5.84943,1.79518 6.09362,1.64652 "/>
   <polygon id="_351217464" class="fil7" points="5.11989,1.94559 5.11865,2.24165 5.36659,2.39079 5.61374,2.53945 5.61498,2.24433 5.61621,1.94826 5.36826,1.79912 5.12111,1.65046 "/>
   <polygon id="_351217368" class="fil10" points="5.36356,1.8018 5.11797,1.65409 5.35952,1.50848 5.6051,1.36044 5.85068,1.50848 6.09548,1.65604 5.85068,1.80361 5.60888,1.94936 "/>
   <polygon id="_351217416" class="fil0 str0" points="5.59371,1.19682 5.8393,1.04878 6.08487,0.900752 6.08487,0.604681 6.08487,0.308606 5.8393,0.160575 5.59371,0.0125354 5.34813,0.160575 5.10256,0.308606 5.10256,0.604681 5.10256,0.900752 5.34813,1.04878 "/>
   <polygon id="_351217392" class="fil1" points="6.07874,0.596417 6.07996,0.892484 5.83499,1.04162 5.59081,1.19028 5.58959,0.895157 5.58837,0.599091 5.83334,0.449953 6.07752,0.301295 "/>
   <polygon id="_351217296" class="fil2" points="5.10283,0.600362 5.1016,0.896429 5.34955,1.04557 5.5967,1.19422 5.59793,0.899102 5.59916,0.603035 5.35122,0.453898 5.10407,0.30524 "/>
   <polygon id="_351217560" class="fil3" points="5.34747,0.456579 5.10188,0.308862 5.34343,0.163252 5.58901,0.0152205 5.83459,0.163252 6.07938,0.310819 5.83459,0.458382 5.59279,0.604138 "/>
   <polygon id="_351217512" class="fil0" points="5.06917,1.54819 5.31474,1.40015 5.56032,1.25211 5.56032,0.956047 5.56032,0.659972 5.31474,0.511941 5.06917,0.363902 4.82358,0.511941 4.57801,0.659972 4.57801,0.956047 4.57801,1.25211 4.82358,1.40015 "/>
   <polygon id="_351217320" class="fil4" points="5.54972,0.943114 5.55093,1.23919 5.30597,1.38832 5.06178,1.53698 5.06057,1.24186 5.05935,0.945787 5.30431,0.79665 5.5485,0.647992 "/>
   <polygon id="_351216720" class="fil0" points="6.10204,1.85126 6.34761,1.70322 6.59319,1.55519 6.59319,1.25911 6.59319,0.963039 6.34761,0.815012 6.10204,0.666969 5.85646,0.815012 5.61088,0.963039 5.61088,1.25911 5.61088,1.55519 5.85646,1.70322 "/>
   <polygon id="_351216480" class="fil11" points="6.62143,0.952583 6.62265,1.24865 6.37769,1.39779 6.1335,1.54644 6.13228,1.25132 6.13107,0.955256 6.37604,0.806118 6.62022,0.657461 "/>
   <polygon id="_351217128" class="fil1" points="5.6418,0.942433 5.64057,1.2385 5.88851,1.38764 6.13566,1.5363 6.13689,1.24117 6.13812,0.945106 5.89018,0.795969 5.64303,0.647311 "/>
   <polygon id="_351216624" class="fil8" points="5.89016,0.812744 5.64457,0.665028 5.88613,0.519417 6.1317,0.371382 6.37728,0.519417 6.62207,0.66698 6.37728,0.814543 6.13548,0.960303 "/>
   <polygon id="_351216912" class="fil0 str0" points="5.57488,1.65677 5.72044,1.56902 5.86601,1.48128 5.86601,1.30578 5.86601,1.13028 5.72044,1.04254 5.57488,0.954787 5.42931,1.04254 5.28374,1.13028 5.28374,1.30578 5.28374,1.48128 5.42931,1.56902 "/>
   <polygon id="_351217104" class="fil4" points="5.85972,1.29812 5.86044,1.47361 5.71524,1.56201 5.5705,1.65013 5.56978,1.4752 5.56906,1.2997 5.71426,1.2113 5.859,1.12319 "/>
   <polygon id="_351217032" class="fil12" points="5.28448,1.30322 5.28374,1.47872 5.43071,1.56712 5.57721,1.65523 5.57794,1.4803 5.57867,1.30481 5.4317,1.21641 5.2852,1.12829 "/>
   <polygon id="_351216576" class="fil6" points="5.42891,1.218 5.28334,1.13044 5.42652,1.04413 5.57209,0.956382 5.71765,1.04413 5.86276,1.13159 5.71765,1.21906 5.57433,1.30546 "/>
   <polygon id="_351216144" class="fil0 str0" points="5.59819,1.87452 5.84377,1.72648 6.08935,1.57844 6.08935,1.28237 6.08935,0.986299 5.84377,0.838268 5.59819,0.690228 5.35261,0.838268 5.10703,0.986299 5.10703,1.28237 5.10703,1.57844 5.35261,1.72648 "/>
   <polygon id="_351216000" class="fil1" points="6.08321,1.27411 6.08443,1.57018 5.83946,1.71931 5.59528,1.86797 5.59406,1.57285 5.59285,1.27678 5.83781,1.12765 6.082,0.978988 "/>
   <polygon id="_351215736" class="fil2" points="5.10826,1.27806 5.10703,1.57412 5.35497,1.72326 5.60212,1.87192 5.60335,1.5768 5.60459,1.28073 5.35665,1.13159 5.1095,0.982933 "/>
   <polygon id="_351215664" class="fil3" points="5.35194,1.13427 5.10635,0.986555 5.3479,0.840949 5.59348,0.692913 5.83906,0.840949 6.08385,0.988512 5.83906,1.13607 5.59726,1.28183 "/>
   <polygon id="_351216312" class="fil0 str0" points="5.07012,2.22121 5.3157,2.07318 5.56128,1.92514 5.56128,1.62907 5.56128,1.333 5.3157,1.18496 5.07012,1.03693 4.82454,1.18496 4.57896,1.333 4.57896,1.62907 4.57896,1.92514 4.82454,2.07318 "/>
   <polygon id="_351215712" class="fil4" points="5.55515,1.62081 5.55636,1.91688 5.3114,2.06602 5.06721,2.21467 5.066,1.91955 5.06478,1.62348 5.30974,1.47435 5.55393,1.32569 "/>
   <polygon id="_351215640" class="fil5" points="4.5802,1.62475 4.57896,1.92082 4.82691,2.06996 5.07406,2.21862 5.07529,1.9235 5.07652,1.62743 4.82858,1.47829 4.58143,1.32963 "/>
   <polygon id="_351216192" class="fil6" points="4.82387,1.48097 4.57828,1.33326 4.81983,1.18765 5.06541,1.03961 5.31099,1.18765 5.55579,1.33521 5.31099,1.48277 5.06919,1.62853 "/>
   <polygon id="_351215400" class="fil0" points="6.10204,2.52428 6.34761,2.37624 6.59319,2.22821 6.59319,1.93214 6.59319,1.63607 6.34761,1.48803 6.10204,1.33999 5.85646,1.48803 5.61088,1.63607 5.61088,1.93214 5.61088,2.22821 5.85646,2.37624 "/>
   <polygon id="_351215184" class="fil7" points="6.62144,1.62561 6.62265,1.92168 6.37769,2.07081 6.1335,2.21947 6.13228,1.92435 6.13107,1.62828 6.37604,1.47914 6.62022,1.33048 "/>
   <polygon id="_351214920" class="fil1" points="5.64627,1.62234 5.64504,1.91841 5.89298,2.06754 6.14013,2.2162 6.14136,1.92108 6.14259,1.62501 5.89465,1.47587 5.6475,1.32722 "/>
   <polygon id="_351215472" class="fil8" points="5.89016,1.48577 5.64457,1.33805 5.88613,1.19244 6.1317,1.04441 6.37728,1.19244 6.62207,1.34001 6.37728,1.48757 6.13548,1.63333 "/>
   <polygon id="_351215448" class="fil0 str0" points="5.60981,2.54205 5.85539,2.39401 6.10096,2.24597 6.10096,1.9499 6.10096,1.65383 5.85539,1.5058 5.60981,1.35776 5.36423,1.5058 5.11865,1.65383 5.11865,1.9499 5.11865,2.24597 5.36423,2.39401 "/>
   <polygon id="_351215424" class="fil9" points="6.09483,1.94164 6.09605,2.23771 5.85108,2.38685 5.6069,2.5355 5.60569,2.24038 5.60446,1.94431 5.84943,1.79518 6.09362,1.64652 "/>
   <polygon id="_351215208" class="fil7" points="5.11989,1.94559 5.11865,2.24165 5.36659,2.39079 5.61374,2.53945 5.61498,2.24433 5.61621,1.94826 5.36826,1.79912 5.12111,1.65046 "/>
   <polygon id="_351214848" class="fil10" points="5.36356,1.8018 5.11797,1.65409 5.35952,1.50848 5.6051,1.36044 5.85068,1.50848 6.09548,1.65604 5.85068,1.80361 5.60888,1.94936 "/>
   <polygon id="_351214464" class="fil0 str0" points="5.59371,1.19682 5.8393,1.04878 6.08487,0.900752 6.08487,0.604681 6.08487,0.308606 5.8393,0.160575 5.59371,0.0125354 5.34813,0.160575 5.10256,0.308606 5.10256,0.604681 5.10256,0.900752 5.34813,1.04878 "/>
   <polygon id="_351214152" class="fil1" points="6.07874,0.596417 6.07996,0.892484 5.83499,1.04162 5.59081,1.19028 5.58959,0.895157 5.58837,0.599091 5.83334,0.449953 6.07752,0.301295 "/>
   <polygon id="_351214224" class="fil2" points="5.10283,0.600362 5.1016,0.896429 5.34955,1.04557 5.5967,1.19422 5.59793,0.899102 5.59916,0.603035 5.35122,0.453898 5.10407,0.30524 "/>
   <polygon id="_351214416" class="fil3" points="5.34747,0.456579 5.10188,0.308862 5.34343,0.163252 5.58901,0.0152205 5.83459,0.163252 6.07938,0.310819 5.83459,0.458382 5.59279,0.604138 "/>
   <polygon id="_351214512" class="fil0" points="6.10204,1.85126 6.34761,1.70322 6.59319,1.55519 6.59319,1.25911 6.59319,0.963039 6.34761,0.815012 6.10204,0.666969 5.85646,0.815012 5.61088,0.963039 5.61088,1.25911 5.61088,1.55519 5.85646,1.70322 "/>
   <polygon id="_351214680" class="fil11" points="6.62144,0.952583 6.62265,1.24865 6.37769,1.39779 6.1335,1.54644 6.13228,1.25132 6.13107,0.955256 6.37604,0.806118 6.62022,0.657461 "/>
   <polygon id="_351214536" class="fil1" points="5.6418,0.942433 5.64057,1.2385 5.88851,1.38764 6.13566,1.5363 6.13689,1.24117 6.13812,0.945106 5.89018,0.795969 5.64303,0.647311 "/>
   <polygon id="_351214608" class="fil8" points="5.89016,0.812744 5.64457,0.665028 5.88613,0.519417 6.1317,0.371382 6.37728,0.519417 6.62207,0.66698 6.37728,0.814543 6.13548,0.960303 "/>
   <polygon id="_351213744" class="fil0 str0" points="5.57488,1.65677 5.72044,1.56902 5.86601,1.48128 5.86601,1.30578 5.86601,1.13028 5.72044,1.04254 5.57488,0.954787 5.42931,1.04254 5.28374,1.13028 5.28374,1.30578 5.28374,1.48128 5.42931,1.56902 "/>
   <polygon id="_351213552" class="fil4" points="5.85972,1.29812 5.86044,1.47361 5.71524,1.56201 5.5705,1.65013 5.56978,1.4752 5.56906,1.2997 5.71426,1.2113 5.859,1.12319 "/>
   <polygon id="_351214056" class="fil12" points="5.28448,1.30322 5.28374,1.47872 5.43071,1.56712 5.57721,1.65523 5.57794,1.4803 5.57867,1.30481 5.4317,1.21641 5.2852,1.12829 "/>
   <polygon id="_351213624" class="fil6" points="5.42891,1.218 5.28334,1.13044 5.42652,1.04413 5.57209,0.956382 5.71765,1.04413 5.86276,1.13159 5.71765,1.21906 5.57433,1.30546 "/>
   <polygon id="_351213600" class="fil13" points="1.58202,2.42115 1.34049,2.42115 0.369102,0.689343 0.369102,2.42115 0.127579,2.42115 0.127579,0.229185 0.369102,0.229185 1.34049,1.96411 1.34049,0.229185 1.58202,0.229185 "/>
   <polygon id="_3512136001" class="fil13" points="2.71531,2.2004 3.37883,2.2004 3.37883,2.42115 2.47379,2.42115 2.47379,0.229185 2.71531,0.229185 "/>
   <path id="_35121360012" class="fil13" d="M4.37146 1.53815l0 0.883008 -0.241524 0 0 -2.19197 0.594516 0c0.214094,0 0.374224,0.0585551 0.480386,0.175665 0.106165,0.117114 0.159248,0.277236 0.159248,0.48037 0,0.205205 -0.0548504,0.365327 -0.164555,0.480366 -0.109701,0.115039 -0.268063,0.172559 -0.475079,0.172559l-0.352992 0zm0.331756 -0.236295c0.146862,0 0.252583,-0.0362756 0.317165,-0.108823 0.0645827,-0.0725472 0.096874,-0.17515 0.096874,-0.307807 0,-0.136803 -0.0322913,-0.240961 -0.096874,-0.312472 -0.0645827,-0.0715118 -0.170303,-0.107268 -0.317165,-0.107268l-0.331756 0 0 0.83637 0.331756 0z"/>
   <polygon id="_351213600123" class="fil14 str1" points="1.58202,2.42115 1.34049,2.42115 0.369102,0.689343 0.369102,2.42115 0.127579,2.42115 0.127579,0.229185 0.369102,0.229185 1.34049,1.96411 1.34049,0.229185 1.58202,0.229185 "/>
   <polygon id="_3512136001234" class="fil14 str1" points="2.71531,2.2004 3.37883,2.2004 3.37883,2.42115 2.47379,2.42115 2.47379,0.229185 2.71531,0.229185 "/>
   <path id="_35121360012345" class="fil14 str1" d="M4.37146 1.53815l0 0.883008 -0.241524 0 0 -2.19197 0.594516 0c0.214094,0 0.374224,0.0585551 0.480386,0.175665 0.106165,0.117114 0.159248,0.277236 0.159248,0.48037 0,0.205205 -0.0548504,0.365327 -0.164555,0.480366 -0.109701,0.115039 -0.268063,0.172559 -0.475079,0.172559l-0.352992 0zm0.331756 -0.236295c0.146862,0 0.252583,-0.0362756 0.317165,-0.108823 0.0645827,-0.0725472 0.096874,-0.17515 0.096874,-0.307807 0,-0.136803 -0.0322913,-0.240961 -0.096874,-0.312472 -0.0645827,-0.0715118 -0.170303,-0.107268 -0.317165,-0.107268l-0.331756 0 0 0.83637 0.331756 0z"/>
   <polygon id="_351213504" class="fil15" points="0.316559,2.79133 0.269559,2.79133 0.164224,2.63133 0.164224,2.79133 0.117224,2.79133 0.117224,2.556 0.164224,2.556 0.269559,2.71733 0.269559,2.556 0.316559,2.556 "/>
   <path id="_3512135041" class="fil15" d="M0.431555 2.60433c0.0155591,0 0.0288898,0.00366535 0.04,0.011 0.0111142,0.00733071 0.019,0.0172205 0.0236693,0.0296654l0 -0.0383346 0.0466654 0 0 0.184669 -0.0466654 0 0 -0.0386654c-0.00466929,0.0124449 -0.0125551,0.0223858 -0.0236693,0.0298307 -0.0111102,0.00744488 -0.0244409,0.0111693 -0.04,0.0111693 -0.0155551,0 -0.0295551,-0.00377953 -0.042,-0.0113346 -0.0124449,-0.00755512 -0.0221654,-0.0185 -0.0291654,-0.0328346 -0.007,-0.0143307 -0.0105,-0.0311654 -0.0105,-0.0505 0,-0.0193307 0.0035,-0.0361654 0.0105,-0.0505 0.007,-0.0143307 0.0167205,-0.0252756 0.0291654,-0.0328346 0.0124449,-0.00755512 0.0264449,-0.0113307 0.042,-0.0113307zm0.0146693 0.041c-0.0146693,0 -0.0264449,0.00477559 -0.0353346,0.0143346 -0.00888976,0.00955512 -0.0133346,0.0226654 -0.0133346,0.0393307 0,0.0166693 0.00444488,0.0297244 0.0133346,0.0391693 0.00888976,0.00944488 0.0206654,0.0141654 0.0353346,0.0141654 0.0142205,0 0.0259449,-0.00483465 0.0351654,-0.0145 0.00922441,-0.00966535 0.0138346,-0.0226102 0.0138346,-0.0388346 0,-0.0164449 -0.00461024,-0.0295 -0.0138346,-0.0391654 -0.00922047,-0.00966535 -0.0209449,-0.0145 -0.0351654,-0.0145z"/>
   <polygon id="_35121350412" class="fil15" points="0.66489,2.74433 0.711559,2.60667 0.761559,2.60667 0.693224,2.79133 0.63589,2.79133 0.567559,2.60667 0.61789,2.60667 "/>
   <path id="_351213504123" class="fil15" d="M0.782224 2.55367c0,-0.00755512 0.00266535,-0.0137205 0.008,-0.0185 0.00533465,-0.00477559 0.0123346,-0.00716535 0.021,-0.00716535 0.00866535,0 0.0156654,0.00238976 0.021,0.00716535 0.00533465,0.00477953 0.008,0.0109449 0.008,0.0185 0,0.00733465 -0.00266535,0.0133898 -0.008,0.0181693 -0.00533465,0.00477559 -0.0123346,0.00716535 -0.021,0.00716535 -0.00866535,0 -0.0156654,-0.00238976 -0.021,-0.00716535 -0.00533465,-0.00477953 -0.008,-0.0108346 -0.008,-0.0181693zm0.0523346 0.053l0 0.184669 -0.047 0 0 -0.184669 0.047 0z"/>
   <path id="_3512135041234" class="fil15" d="M0.949555 2.60433c0.0155591,0 0.0288898,0.00366535 0.04,0.011 0.0111142,0.00733071 0.019,0.0172205 0.0236693,0.0296654l0 -0.0383346 0.0466654 0 0 0.185335c0,0.0171142 -0.00338976,0.0325 -0.0101654,0.0461693 -0.00677953,0.0136654 -0.0168898,0.0243898 -0.0303346,0.0321654 -0.0134449,0.00777953 -0.0297205,0.0116654 -0.0488346,0.0116654 -0.0266654,0 -0.0482205,-0.00633071 -0.0646654,-0.019 -0.0164449,-0.0126654 -0.0264449,-0.0298858 -0.03,-0.0516654l0.0463346 0c0.00266535,0.00933465 0.00783071,0.0166102 0.0155,0.0218346 0.00766535,0.00522047 0.0175,0.00783071 0.0295,0.00783071 0.0137756,0 0.0248898,-0.00405512 0.0333307,-0.0121654 0.00844488,-0.00811024 0.0126693,-0.0203898 0.0126693,-0.0368346l0 -0.0393307c-0.00466929,0.0124449 -0.0125551,0.0223858 -0.0236693,0.0298307 -0.0111102,0.00744488 -0.0244409,0.0111693 -0.04,0.0111693 -0.0155551,0 -0.0295551,-0.00377953 -0.042,-0.0113346 -0.0124449,-0.00755512 -0.0221654,-0.0185 -0.0291654,-0.0328346 -0.007,-0.0143307 -0.0105,-0.0311654 -0.0105,-0.0505 0,-0.0193307 0.0035,-0.0361654 0.0105,-0.0505 0.007,-0.0143307 0.0167205,-0.0252756 0.0291654,-0.0328346 0.0124449,-0.00755512 0.0264449,-0.0113307 0.042,-0.0113307zm0.0146693 0.041c-0.0146693,0 -0.0264449,0.00477559 -0.0353346,0.0143346 -0.00888976,0.00955512 -0.0133346,0.0226654 -0.0133346,0.0393307 0,0.0166693 0.00444488,0.0297244 0.0133346,0.0391693 0.00888976,0.00944488 0.0206654,0.0141654 0.0353346,0.0141654 0.0142205,0 0.0259449,-0.00483465 0.0351654,-0.0145 0.00922441,-0.00966535 0.0138346,-0.0226102 0.0138346,-0.0388346 0,-0.0164449 -0.00461024,-0.0295 -0.0138346,-0.0391654 -0.00922047,-0.00966535 -0.0209449,-0.0145 -0.0351654,-0.0145z"/>
   <path id="_35121350412345" class="fil15" d="M1.17489 2.60433c0.0155591,0 0.0288898,0.00366535 0.04,0.011 0.0111142,0.00733071 0.019,0.0172205 0.0236693,0.0296654l0 -0.0383346 0.0466654 0 0 0.184669 -0.0466654 0 0 -0.0386654c-0.00466929,0.0124449 -0.0125551,0.0223858 -0.0236693,0.0298307 -0.0111102,0.00744488 -0.0244409,0.0111693 -0.04,0.0111693 -0.0155551,0 -0.0295551,-0.00377953 -0.042,-0.0113346 -0.0124449,-0.00755512 -0.0221654,-0.0185 -0.0291654,-0.0328346 -0.007,-0.0143307 -0.0105,-0.0311654 -0.0105,-0.0505 0,-0.0193307 0.0035,-0.0361654 0.0105,-0.0505 0.007,-0.0143307 0.0167205,-0.0252756 0.0291654,-0.0328346 0.0124449,-0.00755512 0.0264449,-0.0113307 0.042,-0.0113307zm0.0146693 0.041c-0.0146693,0 -0.0264449,0.00477559 -0.0353346,0.0143346 -0.00888976,0.00955512 -0.0133346,0.0226654 -0.0133346,0.0393307 0,0.0166693 0.00444488,0.0297244 0.0133346,0.0391693 0.00888976,0.00944488 0.0206654,0.0141654 0.0353346,0.0141654 0.0142205,0 0.0259449,-0.00483465 0.0351654,-0.0145 0.00922441,-0.00966535 0.0138346,-0.0226102 0.0138346,-0.0388346 0,-0.0164449 -0.00461024,-0.0295 -0.0138346,-0.0391654 -0.00922047,-0.00966535 -0.0209449,-0.0145 -0.0351654,-0.0145z"/>
   <path id="_351213504123456" class="fil15" d="M1.42656 2.751l0 0.0403346 -0.0246654 0c-0.0206693,0 -0.0365,-0.005 -0.0475,-0.015 -0.011,-0.01 -0.0165,-0.0266654 -0.0165,-0.05l0 -0.08 -0.0256693 0 0 -0.0396693 0.0256693 0 0 -0.0456654 0.047 0 0 0.0456654 0.0413307 0 0 0.0396693 -0.0413307 0 0 0.0806654c0,0.00888976 0.00177559,0.0151142 0.00533071,0.0186693 0.00355906,0.00355512 0.00955906,0.00533071 0.018,0.00533071l0.0183346 0z"/>
   <path id="_3512135041234567" class="fil15" d="M1.63389 2.692c0,0.00466929 -0.000555118,0.01 -0.00166535,0.016l-0.135335 0c0.000665354,0.0164449 0.00511024,0.0285551 0.0133346,0.0363346 0.00822047,0.00777953 0.0184449,0.0116654 0.0306654,0.0116654 0.0108898,0 0.0199449,-0.00266535 0.0271654,-0.008 0.00722441,-0.00533071 0.0118346,-0.0125551 0.0138346,-0.0216654l0.0496693 0c-0.00244488,0.0128898 -0.00766929,0.0244449 -0.0156693,0.0346654 -0.008,0.0102244 -0.0182756,0.0182244 -0.0308346,0.024 -0.0125551,0.00577953 -0.0265,0.00866929 -0.0418307,0.00866929 -0.018,0 -0.034,-0.00383465 -0.048,-0.0115 -0.014,-0.00766929 -0.0248898,-0.0186142 -0.0326693,-0.0328346 -0.00777559,-0.0142244 -0.0116654,-0.031 -0.0116654,-0.0503346 0,-0.0193307 0.00388976,-0.0361654 0.0116654,-0.0505 0.00777953,-0.0143307 0.0186693,-0.0252756 0.0326693,-0.0328346 0.014,-0.00755512 0.03,-0.0113307 0.048,-0.0113307 0.0182205,0 0.0341654,0.00377559 0.0478307,0.0113307 0.0136693,0.00755906 0.0242244,0.0179449 0.0316693,0.0311693 0.00744488,0.0132205 0.0111654,0.0282756 0.0111654,0.0451654zm-0.0473346 -0.00466535c0.000669291,-0.0151102 -0.00327559,-0.0265551 -0.0118307,-0.0343346 -0.00855512,-0.00777559 -0.0190551,-0.0116654 -0.0315,-0.0116654 -0.0126693,0 -0.0233346,0.00388976 -0.032,0.0116654 -0.00866929,0.00777953 -0.0134449,0.0192244 -0.0143346,0.0343346l0.0896654 0z"/>
   <polygon id="_35121350412345678" class="fil15" points="2.36822,2.75533 2.44722,2.75533 2.44722,2.79133 2.32122,2.79133 2.32122,2.556 2.36822,2.556 "/>
   <path id="_351213504123456789" class="fil15" d="M2.64888 2.692c0,0.00466929 -0.000555118,0.01 -0.00166535,0.016l-0.135335 0c0.000665354,0.0164449 0.00511024,0.0285551 0.0133346,0.0363346 0.00822047,0.00777953 0.0184449,0.0116654 0.0306654,0.0116654 0.0108898,0 0.0199449,-0.00266535 0.0271654,-0.008 0.00722441,-0.00533071 0.0118346,-0.0125551 0.0138346,-0.0216654l0.0496693 0c-0.00244488,0.0128898 -0.00766929,0.0244449 -0.0156693,0.0346654 -0.008,0.0102244 -0.0182756,0.0182244 -0.0308346,0.024 -0.0125551,0.00577953 -0.0265,0.00866929 -0.0418307,0.00866929 -0.018,0 -0.034,-0.00383465 -0.048,-0.0115 -0.014,-0.00766929 -0.0248898,-0.0186142 -0.0326693,-0.0328346 -0.00777559,-0.0142244 -0.0116654,-0.031 -0.0116654,-0.0503346 0,-0.0193307 0.00388976,-0.0361654 0.0116654,-0.0505 0.00777953,-0.0143307 0.0186693,-0.0252756 0.0326693,-0.0328346 0.014,-0.00755512 0.03,-0.0113307 0.048,-0.0113307 0.0182205,0 0.0341654,0.00377559 0.0478307,0.0113307 0.0136693,0.00755906 0.0242244,0.0179449 0.0316693,0.0311693 0.00744488,0.0132205 0.0111654,0.0282756 0.0111654,0.0451654zm-0.0473346 -0.00466535c0.000669291,-0.0151102 -0.00327559,-0.0265551 -0.0118307,-0.0343346 -0.00855512,-0.00777559 -0.0190551,-0.0116654 -0.0315,-0.0116654 -0.0126693,0 -0.0233346,0.00388976 -0.032,0.0116654 -0.00866929,0.00777953 -0.0134449,0.0192244 -0.0143346,0.0343346l0.0896654 0z"/>
   <path id="_35121350412345678910" class="fil15" d="M2.75455 2.60433c0.0155591,0 0.0288898,0.00366535 0.04,0.011 0.0111142,0.00733071 0.019,0.0172205 0.0236693,0.0296654l0 -0.0383346 0.0466654 0 0 0.184669 -0.0466654 0 0 -0.0386654c-0.00466929,0.0124449 -0.0125551,0.0223858 -0.0236693,0.0298307 -0.0111102,0.00744488 -0.0244409,0.0111693 -0.04,0.0111693 -0.0155551,0 -0.0295551,-0.00377953 -0.042,-0.0113346 -0.0124449,-0.00755512 -0.0221654,-0.0185 -0.0291654,-0.0328346 -0.007,-0.0143307 -0.0105,-0.0311654 -0.0105,-0.0505 0,-0.0193307 0.0035,-0.0361654 0.0105,-0.0505 0.007,-0.0143307 0.0167205,-0.0252756 0.0291654,-0.0328346 0.0124449,-0.00755512 0.0264449,-0.0113307 0.042,-0.0113307zm0.0146693 0.041c-0.0146693,0 -0.0264449,0.00477559 -0.0353346,0.0143346 -0.00888976,0.00955512 -0.0133346,0.0226654 -0.0133346,0.0393307 0,0.0166693 0.00444488,0.0297244 0.0133346,0.0391693 0.00888976,0.00944488 0.0206654,0.0141654 0.0353346,0.0141654 0.0142205,0 0.0259449,-0.00483465 0.0351654,-0.0145 0.00922441,-0.00966535 0.0138346,-0.0226102 0.0138346,-0.0388346 0,-0.0164449 -0.00461024,-0.0295 -0.0138346,-0.0391654 -0.00922047,-0.00966535 -0.0209449,-0.0145 -0.0351654,-0.0145z"/>
   <path id="_3512135041234567891011" class="fil15" d="M2.97988 2.60433c0.0155591,0 0.0288346,0.00366535 0.0398346,0.011 0.011,0.00733071 0.0189449,0.0172205 0.0238346,0.0296654l0 -0.100335 0.0466654 0 0 0.246669 -0.0466654 0 0 -0.0386654c-0.00488976,0.0124449 -0.0128346,0.0223858 -0.0238346,0.0298307 -0.011,0.00744488 -0.0242756,0.0111693 -0.0398346,0.0111693 -0.0155551,0 -0.0295551,-0.00377953 -0.042,-0.0113346 -0.0124449,-0.00755512 -0.0221654,-0.0185 -0.0291654,-0.0328346 -0.007,-0.0143307 -0.0105,-0.0311654 -0.0105,-0.0505 0,-0.0193307 0.0035,-0.0361654 0.0105,-0.0505 0.007,-0.0143307 0.0167205,-0.0252756 0.0291654,-0.0328346 0.0124449,-0.00755512 0.0264449,-0.0113307 0.042,-0.0113307zm0.0146693 0.041c-0.0146693,0 -0.0264449,0.00477559 -0.0353346,0.0143346 -0.00888976,0.00955512 -0.0133346,0.0226654 -0.0133346,0.0393307 0,0.0166693 0.00444488,0.0297244 0.0133346,0.0391693 0.00888976,0.00944488 0.0206654,0.0141654 0.0353346,0.0141654 0.0142205,0 0.0259449,-0.00483465 0.0351654,-0.0145 0.00922441,-0.00966535 0.0138346,-0.0226102 0.0138346,-0.0388346 0,-0.0164449 -0.00461024,-0.0295 -0.0138346,-0.0391654 -0.00922047,-0.00966535 -0.0209449,-0.0145 -0.0351654,-0.0145z"/>
   <path id="_351213504123456789101112" class="fil15" d="M3.30655 2.692c0,0.00466929 -0.000555118,0.01 -0.00166535,0.016l-0.135335 0c0.000665354,0.0164449 0.00511024,0.0285551 0.0133346,0.0363346 0.00822047,0.00777953 0.0184449,0.0116654 0.0306654,0.0116654 0.0108898,0 0.0199449,-0.00266535 0.0271654,-0.008 0.00722441,-0.00533071 0.0118346,-0.0125551 0.0138346,-0.0216654l0.0496693 0c-0.00244488,0.0128898 -0.00766929,0.0244449 -0.0156693,0.0346654 -0.008,0.0102244 -0.0182756,0.0182244 -0.0308346,0.024 -0.0125551,0.00577953 -0.0265,0.00866929 -0.0418307,0.00866929 -0.018,0 -0.034,-0.00383465 -0.048,-0.0115 -0.014,-0.00766929 -0.0248898,-0.0186142 -0.0326693,-0.0328346 -0.00777559,-0.0142244 -0.0116654,-0.031 -0.0116654,-0.0503346 0,-0.0193307 0.00388976,-0.0361654 0.0116654,-0.0505 0.00777953,-0.0143307 0.0186693,-0.0252756 0.0326693,-0.0328346 0.014,-0.00755512 0.03,-0.0113307 0.048,-0.0113307 0.0182205,0 0.0341654,0.00377559 0.0478307,0.0113307 0.0136693,0.00755906 0.0242244,0.0179449 0.0316693,0.0311693 0.00744488,0.0132205 0.0111654,0.0282756 0.0111654,0.0451654zm-0.0473346 -0.00466535c0.000669291,-0.0151102 -0.00327559,-0.0265551 -0.0118307,-0.0343346 -0.00855512,-0.00777559 -0.0190551,-0.0116654 -0.0315,-0.0116654 -0.0126693,0 -0.0233346,0.00388976 -0.032,0.0116654 -0.00866929,0.00777953 -0.0134449,0.0192244 -0.0143346,0.0343346l0.0896654 0z"/>
   <path id="_35121350412345678910111213" class="fil15" d="M3.38689 2.642c0.00688976,-0.0117756 0.016,-0.0210551 0.0273307,-0.0278346 0.0113346,-0.00677559 0.024,-0.0101654 0.038,-0.0101654l0 0.0503346 -0.0136654 0c-0.0344449,0 -0.0516654,0.016 -0.0516654,0.048l0 0.089 -0.047 0 0 -0.184669 0.047 0 0 0.0353346z"/>
   <path id="_3512135041234567891011121314" class="fil15" d="M3.54189 2.60433c0.0224449,0 0.0404449,0.00566535 0.054,0.017 0.0135551,0.0113346 0.022,0.0264449 0.0253346,0.0453346l-0.044 0c-0.00177953,-0.00888976 -0.00577953,-0.016 -0.012,-0.0213346 -0.00622441,-0.00533465 -0.0143346,-0.008 -0.0243346,-0.008 -0.008,0 -0.0142205,0.00188976 -0.0186654,0.00566535 -0.00444488,0.00377953 -0.00666929,0.00888976 -0.00666929,0.0153346 0,0.00511024 0.00177953,0.00922047 0.00533465,0.0123346 0.00355512,0.00311024 0.008,0.00555512 0.0133346,0.00733071 0.00533071,0.00177953 0.013,0.00388976 0.023,0.00633465 0.014,0.00311024 0.0253898,0.00638976 0.0341654,0.00983465 0.00877953,0.00344094 0.0163346,0.00888583 0.0226654,0.0163307 0.00633465,0.00744488 0.00950394,0.0175 0.00950394,0.0301693 0,0.0157756 -0.00616929,0.0285551 -0.0185039,0.0383307 -0.0123307,0.00977953 -0.0289409,0.0146693 -0.0498307,0.0146693 -0.024,0 -0.0432244,-0.00538976 -0.0576693,-0.0161693 -0.0144449,-0.0107756 -0.0232205,-0.0261654 -0.0263307,-0.0461654l0.045 0c0.00111024,0.00911024 0.00511024,0.0162795 0.012,0.0215 0.00688976,0.00522047 0.0158898,0.00783465 0.027,0.00783465 0.008,0 0.0141102,-0.00194488 0.0183307,-0.00583465 0.00422441,-0.00388976 0.00633465,-0.00894488 0.00633465,-0.0151654 0,-0.00533465 -0.00183465,-0.00966929 -0.0055,-0.013 -0.00366535,-0.00333465 -0.00822047,-0.00588976 -0.0136654,-0.00766929 -0.00544488,-0.00177559 -0.0131693,-0.00388976 -0.0231693,-0.00633071 -0.0137756,-0.00311417 -0.0249409,-0.00627953 -0.0335,-0.0095 -0.00855512,-0.00322441 -0.0158858,-0.00838976 -0.022,-0.0155 -0.00611024,-0.00711417 -0.00916535,-0.0168898 -0.00916535,-0.0293346 0,-0.016 0.00611024,-0.029 0.0183346,-0.039 0.0122205,-0.01 0.0291102,-0.015 0.0506654,-0.015z"/>
   <path id="_351213504123456789101112131415" class="fil15" d="M4.21421 2.704l0 0.0873346 -0.047 0 0 -0.235335 0.0856654 0c0.0277795,0 0.0487244,0.00666535 0.0628346,0.02 0.0141102,0.0133346 0.0211654,0.0314449 0.0211654,0.0543346 0,0.0224449 -0.00727559,0.0403346 -0.0218307,0.0536654 -0.0145591,0.0133346 -0.0352795,0.02 -0.0621693,0.02l-0.0386654 0zm0.0336654 -0.0376654c0.0275551,0 0.0413346,-0.012 0.0413346,-0.036 0,-0.0117795 -0.00322441,-0.0207795 -0.00966929,-0.027 -0.00644094,-0.00622441 -0.017,-0.00933465 -0.0316654,-0.00933465l-0.0336654 0 0 0.0723346 0.0336654 0z"/>
   <path id="_35121350412345678910111213141516" class="fil15" d="M4.43988 2.60433c0.0155591,0 0.0288898,0.00366535 0.04,0.011 0.0111142,0.00733071 0.019,0.0172205 0.0236693,0.0296654l0 -0.0383346 0.0466654 0 0 0.184669 -0.0466654 0 0 -0.0386654c-0.00466929,0.0124449 -0.0125551,0.0223858 -0.0236693,0.0298307 -0.0111102,0.00744488 -0.0244409,0.0111693 -0.04,0.0111693 -0.0155551,0 -0.0295551,-0.00377953 -0.042,-0.0113346 -0.0124449,-0.00755512 -0.0221654,-0.0185 -0.0291654,-0.0328346 -0.007,-0.0143307 -0.0105,-0.0311654 -0.0105,-0.0505 0,-0.0193307 0.0035,-0.0361654 0.0105,-0.0505 0.007,-0.0143307 0.0167205,-0.0252756 0.0291654,-0.0328346 0.0124449,-0.00755512 0.0264449,-0.0113307 0.042,-0.0113307zm0.0146693 0.041c-0.0146693,0 -0.0264449,0.00477559 -0.0353346,0.0143346 -0.00888976,0.00955512 -0.0133346,0.0226654 -0.0133346,0.0393307 0,0.0166693 0.00444488,0.0297244 0.0133346,0.0391693 0.00888976,0.00944488 0.0206654,0.0141654 0.0353346,0.0141654 0.0142205,0 0.0259449,-0.00483465 0.0351654,-0.0145 0.00922441,-0.00966535 0.0138346,-0.0226102 0.0138346,-0.0388346 0,-0.0164449 -0.00461024,-0.0295 -0.0138346,-0.0391654 -0.00922047,-0.00966535 -0.0209449,-0.0145 -0.0351654,-0.0145z"/>
   <path id="_3512135041234567891011121314151617" class="fil15" d="M4.65655 2.60433c0.0224449,0 0.0404449,0.00566535 0.054,0.017 0.0135551,0.0113346 0.022,0.0264449 0.0253346,0.0453346l-0.044 0c-0.00177953,-0.00888976 -0.00577953,-0.016 -0.012,-0.0213346 -0.00622441,-0.00533465 -0.0143346,-0.008 -0.0243346,-0.008 -0.008,0 -0.0142205,0.00188976 -0.0186654,0.00566535 -0.00444488,0.00377953 -0.00666929,0.00888976 -0.00666929,0.0153346 0,0.00511024 0.00177953,0.00922047 0.00533465,0.0123346 0.00355512,0.00311024 0.008,0.00555512 0.0133346,0.00733071 0.00533071,0.00177953 0.013,0.00388976 0.023,0.00633465 0.014,0.00311024 0.0253898,0.00638976 0.0341654,0.00983465 0.00877953,0.00344094 0.0163346,0.00888583 0.0226654,0.0163307 0.00633465,0.00744488 0.00950394,0.0175 0.00950394,0.0301693 0,0.0157756 -0.00616929,0.0285551 -0.0185039,0.0383307 -0.0123307,0.00977953 -0.0289409,0.0146693 -0.0498307,0.0146693 -0.024,0 -0.0432244,-0.00538976 -0.0576693,-0.0161693 -0.0144449,-0.0107756 -0.0232205,-0.0261654 -0.0263307,-0.0461654l0.045 0c0.00111024,0.00911024 0.00511024,0.0162795 0.012,0.0215 0.00688976,0.00522047 0.0158898,0.00783465 0.027,0.00783465 0.008,0 0.0141102,-0.00194488 0.0183307,-0.00583465 0.00422441,-0.00388976 0.00633465,-0.00894488 0.00633465,-0.0151654 0,-0.00533465 -0.00183465,-0.00966929 -0.0055,-0.013 -0.00366535,-0.00333465 -0.00822047,-0.00588976 -0.0136654,-0.00766929 -0.00544488,-0.00177559 -0.0131693,-0.00388976 -0.0231693,-0.00633071 -0.0137756,-0.00311417 -0.0249409,-0.00627953 -0.0335,-0.0095 -0.00855512,-0.00322441 -0.0158858,-0.00838976 -0.022,-0.0155 -0.00611024,-0.00711417 -0.00916535,-0.0168898 -0.00916535,-0.0293346 0,-0.016 0.00611024,-0.029 0.0183346,-0.039 0.0122205,-0.01 0.0291102,-0.015 0.0506654,-0.015z"/>
   <path id="_351213504123456789101112131415161718" class="fil15" d="M4.83688 2.60433c0.0224449,0 0.0404449,0.00566535 0.054,0.017 0.0135551,0.0113346 0.022,0.0264449 0.0253346,0.0453346l-0.044 0c-0.00177953,-0.00888976 -0.00577953,-0.016 -0.012,-0.0213346 -0.00622441,-0.00533465 -0.0143346,-0.008 -0.0243346,-0.008 -0.008,0 -0.0142205,0.00188976 -0.0186654,0.00566535 -0.00444488,0.00377953 -0.00666929,0.00888976 -0.00666929,0.0153346 0,0.00511024 0.00177953,0.00922047 0.00533465,0.0123346 0.00355512,0.00311024 0.008,0.00555512 0.0133346,0.00733071 0.00533071,0.00177953 0.013,0.00388976 0.023,0.00633465 0.014,0.00311024 0.0253898,0.00638976 0.0341654,0.00983465 0.00877953,0.00344094 0.0163346,0.00888583 0.0226654,0.0163307 0.00633465,0.00744488 0.00950394,0.0175 0.00950394,0.0301693 0,0.0157756 -0.00616929,0.0285551 -0.0185039,0.0383307 -0.0123307,0.00977953 -0.0289409,0.0146693 -0.0498307,0.0146693 -0.024,0 -0.0432244,-0.00538976 -0.0576693,-0.0161693 -0.0144449,-0.0107756 -0.0232205,-0.0261654 -0.0263307,-0.0461654l0.045 0c0.00111024,0.00911024 0.00511024,0.0162795 0.012,0.0215 0.00688976,0.00522047 0.0158898,0.00783465 0.027,0.00783465 0.008,0 0.0141102,-0.00194488 0.0183307,-0.00583465 0.00422441,-0.00388976 0.00633465,-0.00894488 0.00633465,-0.0151654 0,-0.00533465 -0.00183465,-0.00966929 -0.0055,-0.013 -0.00366535,-0.00333465 -0.00822047,-0.00588976 -0.0136654,-0.00766929 -0.00544488,-0.00177559 -0.0131693,-0.00388976 -0.0231693,-0.00633071 -0.0137756,-0.00311417 -0.0249409,-0.00627953 -0.0335,-0.0095 -0.00855512,-0.00322441 -0.0158858,-0.00838976 -0.022,-0.0155 -0.00611024,-0.00711417 -0.00916535,-0.0168898 -0.00916535,-0.0293346 0,-0.016 0.00611024,-0.029 0.0183346,-0.039 0.0122205,-0.01 0.0291102,-0.015 0.0506654,-0.015z"/>
   <path id="_35121350412345678910111213141516171819" class="fil15" d="M4.94822 2.55367c0,-0.00755512 0.00266535,-0.0137205 0.008,-0.0185 0.00533465,-0.00477559 0.0123346,-0.00716535 0.021,-0.00716535 0.00866535,0 0.0156654,0.00238976 0.021,0.00716535 0.00533465,0.00477953 0.008,0.0109449 0.008,0.0185 0,0.00733465 -0.00266535,0.0133898 -0.008,0.0181693 -0.00533465,0.00477559 -0.0123346,0.00716535 -0.021,0.00716535 -0.00866535,0 -0.0156654,-0.00238976 -0.021,-0.00716535 -0.00533465,-0.00477953 -0.008,-0.0108346 -0.008,-0.0181693zm0.0523346 0.053l0 0.184669 -0.047 0 0 -0.184669 0.047 0z"/>
   <path id="_3512135041234567891011121314151617181920" class="fil15" d="M5.12855 2.60433c0.018,0 0.0341693,0.00377559 0.0485,0.0113307 0.0143346,0.00755906 0.0256142,0.0185039 0.0338346,0.0328346 0.00822441,0.0143346 0.0123346,0.0311693 0.0123346,0.0505 0,0.0193346 -0.00411024,0.0361102 -0.0123346,0.0503346 -0.00822047,0.0142205 -0.0195,0.0251654 -0.0338346,0.0328346 -0.0143307,0.00766535 -0.0305,0.0115 -0.0485,0.0115 -0.018,0 -0.0341654,-0.00383465 -0.0485,-0.0115 -0.0143307,-0.00766929 -0.0256102,-0.0186142 -0.0338307,-0.0328346 -0.00822441,-0.0142244 -0.0123346,-0.031 -0.0123346,-0.0503346 0,-0.0193307 0.00411024,-0.0361654 0.0123346,-0.0505 0.00822047,-0.0143307 0.0195,-0.0252756 0.0338307,-0.0328346 0.0143346,-0.00755512 0.0305,-0.0113307 0.0485,-0.0113307zm0 0.0406654c-0.0131102,0 -0.0242205,0.00461024 -0.0333307,0.0138346 -0.00911024,0.00922047 -0.0136693,0.0226102 -0.0136693,0.0401654 0,0.0175551 0.00455906,0.0309449 0.0136693,0.0401693 0.00911024,0.00922047 0.0202205,0.0138307 0.0333307,0.0138307 0.0131142,0 0.0242244,-0.00461024 0.0333346,-0.0138307 0.00911024,-0.00922441 0.0136654,-0.0226142 0.0136654,-0.0401693 0,-0.0175551 -0.00455512,-0.0309449 -0.0136654,-0.0401654 -0.00911024,-0.00922441 -0.0202205,-0.0138346 -0.0333346,-0.0138346z"/>
   <path id="_351213504123456789101112131415161718192021" class="fil15" d="M5.36655 2.604c0.0213307,0 0.0383346,0.007 0.051,0.021 0.0126654,0.014 0.019,0.0336693 0.019,0.059l0 0.107335 -0.0466693 0 0 -0.102c0,-0.0146654 -0.00377559,-0.0260551 -0.0113307,-0.0341654 -0.00755512,-0.00811417 -0.0178898,-0.0121693 -0.031,-0.0121693 -0.0133346,0 -0.024,0.00433465 -0.032,0.013 -0.008,0.00866929 -0.012,0.0211102 -0.012,0.0373346l0 0.098 -0.047 0 0 -0.184669 0.047 0 0 0.0370039c0.00488976,-0.0124449 0.0129449,-0.0221693 0.0241654,-0.0291693 0.0112244,-0.007 0.0241654,-0.0105 0.0388346,-0.0105z"/>
   <polygon id="_351214008" class="fil4" points="2.0417,2.69781 2.04196,2.76016 1.98987,2.79156 1.93794,2.82287 1.93769,2.76072 1.93743,2.69837 1.98952,2.66696 2.04144,2.63566 "/>
   <polygon id="_343424992" class="fil12" points="1.83534,2.69962 1.83508,2.76197 1.8878,2.79338 1.94035,2.82468 1.94061,2.76253 1.94087,2.70019 1.88815,2.66878 1.8356,2.63747 "/>
   <polygon id="_341294336" class="fil6" points="1.88715,2.66934 1.83493,2.63824 1.8863,2.60757 1.93851,2.5764 1.99073,2.60757 2.04278,2.63865 1.99073,2.66972 1.93931,2.70042 "/>
   <polygon id="_344078768" class="fil4" points="4.0635,2.69906 4.06376,2.76141 4.01167,2.79282 3.95975,2.82413 3.95949,2.76198 3.95923,2.69963 4.01132,2.66822 4.06324,2.63691 "/>
   <polygon id="_343426264" class="fil12" points="3.85714,2.70088 3.85688,2.76322 3.9096,2.79463 3.96215,2.82594 3.96242,2.76379 3.96268,2.70144 3.90996,2.67003 3.85741,2.63873 "/>
   <polygon id="_343426360" class="fil6" points="3.90896,2.6706 3.85674,2.63949 3.9081,2.60883 3.96031,2.57765 4.01254,2.60883 4.06459,2.6399 4.01254,2.67098 3.96112,2.70167 "/>
  </g>
 </g>
</svg>
