<?xml version="1.0" encoding="UTF-8"?>
<!DOCTYPE svg PUBLIC "-//W3C//DTD SVG 1.1//EN" "http://www.w3.org/Graphics/SVG/1.1/DTD/svg11.dtd">
<!-- Creator: CorelDRAW X5 -->
<svg xmlns="http://www.w3.org/2000/svg" xml:space="preserve" width="2.08in" height="2.55in" style="shape-rendering:geometricPrecision; text-rendering:geometricPrecision; image-rendering:optimizeQuality; fill-rule:evenodd; clip-rule:evenodd"
viewBox="0 0 2.08 2.55"
 xmlns:xlink="http://www.w3.org/1999/xlink">
 <defs>
  <style type="text/css">
   <![CDATA[
    .str0 {stroke:#FEFEFE;stroke-width:0.00694488}
    .fil0 {fill:none}
    .fil9 {fill:#009B4C}
    .fil11 {fill:#00A2E9}
    .fil4 {fill:#2F318B}
    .fil6 {fill:#A0D9F6}
    .fil7 {fill:#ACCE22}
    .fil3 {fill:#D0753B}
    .fil10 {fill:#DAB96B}
    .fil1 {fill:#EF8641}
    .fil2 {fill:#F6AE45}
    .fil8 {fill:#FFF582}
    .fil5 {fill:#FFF9B1}
   ]]>
  </style>
 </defs>
 <g id="Layer_x0020_1">
  <metadata id="CorelCorpID_0Corel-Layer"/>
  <polygon class="fil0 str0" points="1.04787,1.83793 1.29344,1.68989 1.53902,1.54185 1.53902,1.24578 1.53902,0.949709 1.29344,0.801677 1.04787,0.653638 0.802283,0.801677 0.556701,0.949709 0.556701,1.24578 0.556701,1.54185 0.802283,1.68989 "/>
  <polygon class="fil1" points="1.53289,1.23752 1.5341,1.53359 1.28914,1.68272 1.04495,1.83138 1.04374,1.53626 1.04252,1.24019 1.28748,1.09106 1.53167,0.942398 "/>
  <polygon class="fil2" points="0.557937,1.24146 0.556705,1.53753 0.804646,1.68667 1.0518,1.83533 1.05303,1.5402 1.05426,1.24414 0.806319,1.095 0.559169,0.946343 "/>
  <polygon class="fil3" points="0.801614,1.09768 0.556028,0.949965 0.797575,0.804358 1.04316,0.656323 1.28874,0.804358 1.53353,0.951921 1.28874,1.09948 1.04693,1.24524 "/>
  <polygon class="fil0 str0" points="0.519791,2.18462 0.765374,2.03659 1.01095,1.88855 1.01095,1.59248 1.01095,1.29641 0.765374,1.14837 0.519791,1.00034 0.274217,1.14837 0.0286339,1.29641 0.0286339,1.59248 0.0286339,1.88855 0.274217,2.03659 "/>
  <polygon class="fil4" points="1.00482,1.58422 1.00604,1.88029 0.761071,2.02943 0.516886,2.17808 0.515669,1.88296 0.514453,1.58689 0.759417,1.43776 1.0036,1.28909 "/>
  <polygon class="fil5" points="0.0298701,1.58816 0.0286378,1.88423 0.276579,2.03337 0.523728,2.18203 0.524961,1.88691 0.526193,1.59083 0.278252,1.4417 0.0310984,1.29304 "/>
  <polygon class="fil6" points="0.273547,1.44438 0.0279606,1.29667 0.269508,1.15106 0.515087,1.00302 0.760665,1.15106 1.00546,1.29862 0.760665,1.44618 0.518866,1.59194 "/>
  <polygon class="fil0" points="1.55171,2.48769 1.79729,2.33965 2.04286,2.19162 2.04286,1.89555 2.04286,1.59948 1.79729,1.45144 1.55171,1.3034 1.30613,1.45144 1.06055,1.59948 1.06055,1.89555 1.06055,2.19162 1.30613,2.33965 "/>
  <polygon class="fil7" points="2.07111,1.58902 2.07233,1.88509 1.82736,2.03422 1.58317,2.18288 1.58196,1.88776 1.58074,1.59169 1.82571,1.44255 2.06989,1.29389 "/>
  <polygon class="fil1" points="1.09594,1.58575 1.09471,1.88181 1.34265,2.03095 1.58981,2.17961 1.59104,1.88449 1.59227,1.58842 1.34433,1.43928 1.09718,1.29063 "/>
  <polygon class="fil8" points="1.33983,1.44918 1.09425,1.30146 1.3358,1.15585 1.58138,1.00782 1.82696,1.15585 2.07175,1.30342 1.82696,1.45098 1.58515,1.59674 "/>
  <polygon class="fil0 str0" points="1.05948,2.50546 1.30506,2.35742 1.55064,2.20938 1.55064,1.91331 1.55064,1.61724 1.30506,1.4692 1.05948,1.32117 0.813906,1.4692 0.568323,1.61724 0.568323,1.91331 0.568323,2.20938 0.813906,2.35742 "/>
  <polygon class="fil9" points="1.54451,1.90505 1.54572,2.20112 1.30076,2.35026 1.05657,2.49891 1.05536,2.20379 1.05414,1.90772 1.29911,1.75859 1.54329,1.60993 "/>
  <polygon class="fil7" points="0.569559,1.909 0.568327,2.20506 0.816268,2.3542 1.06342,2.50286 1.06465,2.20774 1.06588,1.91167 0.817937,1.76253 0.570787,1.61387 "/>
  <polygon class="fil10" points="0.813232,1.76521 0.567646,1.6175 0.809197,1.47189 1.05478,1.32385 1.30035,1.47189 1.54515,1.61945 1.30035,1.76702 1.05856,1.91277 "/>
  <polygon class="fil0" points="1.55171,1.81467 1.79729,1.66663 2.04286,1.5186 2.04286,1.22252 2.04286,0.926449 1.79729,0.778421 1.55171,0.630378 1.30613,0.778421 1.06055,0.926449 1.06055,1.22252 1.06055,1.5186 1.30613,1.66663 "/>
  <polygon class="fil0 str0" points="1.02455,1.62018 1.17011,1.53243 1.31568,1.44469 1.31568,1.26919 1.31568,1.09369 1.17011,1.00595 1.02455,0.918197 0.878984,1.00595 0.733417,1.09369 0.733417,1.26919 0.733417,1.44469 0.878984,1.53243 "/>
  <polygon class="fil4" points="1.3094,1.26153 1.31012,1.43702 1.16491,1.52542 1.02017,1.61354 1.01945,1.43861 1.01873,1.26311 1.16394,1.17471 1.30868,1.08659 "/>
  <polygon class="fil11" points="0.73415,1.26663 0.733417,1.44213 0.880386,1.53053 1.02688,1.61864 1.02761,1.44371 1.02834,1.26822 0.881378,1.17981 0.734878,1.0917 "/>
  <polygon class="fil6" points="0.878587,1.18141 0.733016,1.09385 0.876193,1.00754 1.02176,0.919791 1.16733,1.00754 1.31243,1.095 1.16733,1.18247 1.024,1.26887 "/>
  <polygon class="fil1" points="1.53289,1.23752 1.5341,1.53359 1.28914,1.68272 1.04495,1.83138 1.04374,1.53626 1.04252,1.24019 1.28748,1.09106 1.53167,0.942398 "/>
  <polygon class="fil2" points="0.557937,1.24146 0.556705,1.53753 0.804646,1.68667 1.0518,1.83533 1.05303,1.5402 1.05426,1.24414 0.806319,1.095 0.559169,0.946343 "/>
  <polygon class="fil3" points="0.801614,1.09768 0.556028,0.949965 0.797575,0.804358 1.04316,0.656323 1.28874,0.804358 1.53353,0.951921 1.28874,1.09948 1.04693,1.24524 "/>
  <polygon class="fil0 str0" points="0.519791,2.18462 0.765374,2.03659 1.01095,1.88855 1.01095,1.59248 1.01095,1.29641 0.765374,1.14837 0.519791,1.00034 0.274217,1.14837 0.0286339,1.29641 0.0286339,1.59248 0.0286339,1.88855 0.274217,2.03659 "/>
  <polygon class="fil4" points="1.00482,1.58422 1.00604,1.88029 0.761071,2.02943 0.516886,2.17808 0.515669,1.88296 0.514453,1.58689 0.759417,1.43776 1.0036,1.28909 "/>
  <polygon class="fil5" points="0.0298701,1.58816 0.0286378,1.88423 0.276579,2.03337 0.523728,2.18203 0.524961,1.88691 0.526193,1.59083 0.278252,1.4417 0.0310984,1.29304 "/>
  <polygon class="fil6" points="0.273547,1.44438 0.0279567,1.29667 0.269508,1.15106 0.515087,1.00302 0.760665,1.15106 1.00546,1.29862 0.760665,1.44618 0.518866,1.59194 "/>
  <polygon class="fil0" points="1.55171,2.48769 1.79729,2.33965 2.04286,2.19162 2.04286,1.89555 2.04286,1.59948 1.79729,1.45144 1.55171,1.3034 1.30613,1.45144 1.06055,1.59948 1.06055,1.89555 1.06055,2.19162 1.30613,2.33965 "/>
  <polygon class="fil7" points="2.07111,1.58902 2.07233,1.88509 1.82736,2.03422 1.58317,2.18288 1.58196,1.88776 1.58074,1.59169 1.82571,1.44255 2.06989,1.29389 "/>
  <polygon class="fil1" points="1.09594,1.58575 1.09471,1.88181 1.34265,2.03095 1.58981,2.17961 1.59104,1.88449 1.59227,1.58842 1.34433,1.43928 1.09718,1.29063 "/>
  <polygon class="fil8" points="1.33983,1.44918 1.09425,1.30146 1.3358,1.15585 1.58138,1.00782 1.82696,1.15585 2.07175,1.30342 1.82696,1.45098 1.58515,1.59674 "/>
  <polygon class="fil0 str0" points="1.05948,2.50546 1.30506,2.35742 1.55064,2.20938 1.55064,1.91331 1.55064,1.61724 1.30506,1.4692 1.05948,1.32117 0.813906,1.4692 0.568323,1.61724 0.568323,1.91331 0.568323,2.20938 0.813906,2.35742 "/>
  <polygon class="fil9" points="1.54451,1.90505 1.54572,2.20112 1.30076,2.35026 1.05657,2.49891 1.05536,2.20379 1.05414,1.90772 1.29911,1.75859 1.54329,1.60993 "/>
  <polygon class="fil7" points="0.569559,1.909 0.568327,2.20506 0.816268,2.3542 1.06342,2.50286 1.06465,2.20774 1.06588,1.91167 0.817937,1.76253 0.570787,1.61387 "/>
  <polygon class="fil10" points="0.813232,1.76521 0.567646,1.6175 0.809197,1.47189 1.05478,1.32385 1.30035,1.47189 1.54515,1.61945 1.30035,1.76702 1.05856,1.91277 "/>
  <g id="_355133992">
   <polygon id="_355134208" class="fil4" points="3.28173,351.316 3.28302,351.627 3.02323,351.783 2.76427,351.939 2.76298,351.629 2.76169,351.318 3.02148,351.162 3.28044,351.006 "/>
   <polygon id="_355134400" class="fil11" points="2.25252,351.325 2.25122,351.636 2.51417,351.792 2.77627,351.948 2.77757,351.638 2.77888,351.327 2.51594,351.171 2.25383,351.015 "/>
   <polygon id="_355134424" class="fil6" points="2.51094,351.174 2.2505,351.018 2.50667,350.866 2.76711,350.71 3.02755,350.866 3.28715,351.021 3.02755,351.176 2.77111,351.329 "/>
  </g>
  <polygon class="fil0 str0" points="1.03973,1.19424 1.28531,1.04621 1.53089,0.898173 1.53089,0.602102 1.53089,0.306028 1.28531,0.157992 1.03973,0.00995669 0.794154,0.157992 0.548575,0.306028 0.548575,0.602102 0.548575,0.898173 0.794154,1.04621 "/>
  <polygon class="fil1" points="1.52476,0.593839 1.52597,0.889909 1.28101,1.03904 1.03682,1.1877 1.03561,0.892583 1.03439,0.596512 1.27935,0.447374 1.52354,0.298717 "/>
  <polygon class="fil2" points="0.549807,0.597783 0.548575,0.89385 0.796516,1.04299 1.04367,1.19165 1.0449,0.896524 1.04613,0.600457 0.798189,0.451319 0.551039,0.302661 "/>
  <polygon class="fil3" points="0.793484,0.454 0.547898,0.306283 0.789445,0.160677 1.03503,0.0126417 1.28061,0.160677 1.5254,0.30824 1.28061,0.455803 1.0388,0.601563 "/>
  <polygon class="fil0" points="1.54357,1.84401 1.78915,1.69597 2.03473,1.54794 2.03473,1.25187 2.03473,0.955795 1.78915,0.80776 1.54357,0.659724 1.298,0.80776 1.05242,0.955795 1.05242,1.25187 1.05242,1.54794 1.298,1.69597 "/>
  <polygon class="fil7" points="2.06298,0.945335 2.0642,1.24141 1.81923,1.39054 1.57504,1.5392 1.57383,1.24408 1.57261,0.948008 1.81758,0.79887 2.06176,0.650213 "/>
  <polygon class="fil1" points="1.08781,0.942067 1.08658,1.23813 1.33452,1.38727 1.58168,1.53593 1.58291,1.24081 1.58414,0.94474 1.3362,0.795602 1.08905,0.646945 "/>
  <polygon class="fil8" points="1.3317,0.805496 1.08612,0.65778 1.32767,0.512173 1.57325,0.364138 1.81883,0.512173 2.06362,0.659736 1.81883,0.807299 1.57702,0.953059 "/>
  <polygon class="fil10" points="0.805102,1.12153 0.559516,0.973815 0.801067,0.828205 1.04665,0.680173 1.29222,0.828205 1.53702,0.975772 1.29222,1.12333 1.05043,1.26909 "/>
  <polygon class="fil0" points="1.54357,1.17098 1.78915,1.02295 2.03473,0.874913 2.03473,0.578843 2.03473,0.282772 1.78915,0.134736 1.54357,-0.0133031 1.298,0.134736 1.05242,0.282772 1.05242,0.578843 1.05242,0.874913 1.298,1.02295 "/>
  <polygon class="fil0 str0" points="1.01642,0.9765 1.16199,0.888752 1.30755,0.801004 1.30755,0.625508 1.30755,0.450016 1.16199,0.362268 1.01642,0.27452 0.870854,0.362268 0.725287,0.450016 0.725287,0.625508 0.725287,0.801004 0.870854,0.888752 "/>
  <polygon class="fil4" points="1.30127,0.617846 1.30199,0.793339 1.15678,0.88174 1.01204,0.969858 1.01132,0.794925 1.0106,0.619429 1.15581,0.531028 1.30055,0.442913 "/>
  <polygon class="fil11" points="0.72602,0.622949 0.725287,0.798445 0.872256,0.886846 1.01875,0.974961 1.01948,0.800028 1.02021,0.624535 0.873248,0.536134 0.726748,0.448016 "/>
  <polygon class="fil6" points="0.870457,0.537724 0.724886,0.450165 0.868063,0.363854 1.01363,0.27611 1.1592,0.363854 1.3043,0.451323 1.1592,0.538791 1.01587,0.625189 "/>
  <polygon class="fil1" points="1.52476,0.593839 1.52597,0.889909 1.28101,1.03904 1.03682,1.1877 1.03561,0.892583 1.03439,0.596512 1.27935,0.447374 1.52354,0.298717 "/>
  <polygon class="fil2" points="0.549807,0.597783 0.548575,0.89385 0.796516,1.04299 1.04367,1.19165 1.0449,0.896524 1.04613,0.600457 0.798189,0.451319 0.551039,0.302661 "/>
  <polygon class="fil3" points="0.793484,0.454 0.547898,0.306283 0.789445,0.160677 1.03503,0.0126417 1.28061,0.160677 1.5254,0.30824 1.28061,0.455803 1.0388,0.601563 "/>
  <polygon class="fil0" points="1.54357,1.84401 1.78915,1.69597 2.03473,1.54794 2.03473,1.25187 2.03473,0.955795 1.78915,0.80776 1.54357,0.659724 1.298,0.80776 1.05242,0.955795 1.05242,1.25187 1.05242,1.54794 1.298,1.69597 "/>
  <polygon class="fil8" points="2.06298,0.945335 2.0642,1.24141 1.81923,1.39054 1.57504,1.5392 1.57383,1.24408 1.57261,0.948008 1.81758,0.79887 2.06176,0.650213 "/>
  <polygon class="fil1" points="1.08781,0.942067 1.08658,1.23813 1.33452,1.38727 1.58168,1.53593 1.58291,1.24081 1.58414,0.94474 1.3362,0.795602 1.08905,0.646945 "/>
  <polygon class="fil8" points="1.3317,0.805496 1.08612,0.65778 1.32767,0.512173 1.57325,0.364138 1.81883,0.512173 2.06362,0.659736 1.81883,0.807299 1.57702,0.953059 "/>
  <g id="_358044160">
   <polygon id="_351214008" class="fil4" points="1.29754,1.20093 1.29823,1.36597 1.16035,1.44911 1.02291,1.53198 1.02222,1.36746 1.02154,1.20242 1.15942,1.11928 1.29686,1.03641 "/>
   <polygon id="_343424992" class="fil11" points="0.751303,1.20573 0.75061,1.37077 0.890165,1.45391 1.02928,1.53678 1.02997,1.37226 1.03066,1.20722 0.891106,1.12408 0.751996,1.04122 "/>
   <polygon id="_341294336" class="fil6" points="0.888457,1.12558 0.750228,1.04324 0.886185,0.962067 1.02441,0.879543 1.16264,0.962067 1.30042,1.04433 1.16264,1.12658 1.02654,1.20783 "/>
  </g>
 </g>
</svg>
